<?xml version="1.0" encoding="UTF-8" standalone="no"?>
<!-- Created with Inkscape (http://www.inkscape.org/) -->

<svg
   width="126.09988mm"
   height="24.468428mm"
   viewBox="0 0 126.09989 24.468428"
   version="1.1"
   id="svg5"
   xml:space="preserve"
   xmlns="http://www.w3.org/2000/svg"
   xmlns:svg="http://www.w3.org/2000/svg"><defs
     id="defs2" /><g
     id="layer1"
     transform="translate(-37.321994,-95.788881)"><text
       xml:space="preserve"
       style="font-style:normal;font-variant:normal;font-weight:normal;font-stretch:normal;font-size:3.175px;font-family:'Noto Sans';-inkscape-font-specification:'Noto Sans';fill:#000000;stroke-width:0.264583"
       x="-113.93491"
       y="233.75418"
       id="text277"><tspan
         id="tspan275"
         style="font-style:normal;font-variant:normal;font-weight:normal;font-stretch:normal;font-family:'Noto Sans';-inkscape-font-specification:'Noto Sans';stroke-width:0.264583"
         x="-113.93491"
         y="233.75418"></tspan><tspan
         style="font-style:normal;font-variant:normal;font-weight:normal;font-stretch:normal;font-family:'Noto Sans';-inkscape-font-specification:'Noto Sans';stroke-width:0.264583"
         id="tspan279"
         x="-113.93491"
         y="237.72293" /></text><g
       id="g498"
       transform="translate(25.963055,-36.739827)"><g
         aria-label="TOUCH.GRASS"
         id="text113"
         style="font-size:14.0701px;stroke-width:1.17251"
         transform="translate(2.6458334,-0.52916667)"><path
           d="m 36.294299,152.53201 v -8.80788 h -3.109492 v -0.9427 h 7.302382 v 0.9427 h -3.095422 v 8.80788 z"
           style="font-family:Ubuntu;-inkscape-font-specification:Ubuntu"
           id="path500" /><path
           d="m 45.974521,152.74306 q -1.238168,0 -2.293426,-0.57687 -1.041187,-0.57687 -1.674342,-1.70248 -0.633154,-1.13968 -0.633154,-2.81402 0,-1.25224 0.365822,-2.19494 0.365823,-0.95676 0.998977,-1.58992 0.647225,-0.64722 1.477361,-0.97084 0.830136,-0.32361 1.758762,-0.32361 1.252239,0 2.293427,0.57688 1.041187,0.5628 1.674342,1.70248 0.633154,1.12561 0.633154,2.79995 0,1.67434 -0.633154,2.81402 -0.633155,1.12561 -1.674342,1.70248 -1.041188,0.57687 -2.293427,0.57687 z m 0,-0.9849 q 1.055258,0 1.829113,-0.49246 0.773856,-0.50652 1.195959,-1.42108 0.422103,-0.92862 0.422103,-2.19493 0,-1.26631 -0.422103,-2.18087 -0.422103,-0.92862 -1.195959,-1.42108 -0.773855,-0.49245 -1.829113,-0.49245 -1.055257,0 -1.829113,0.49245 -0.773855,0.49246 -1.195958,1.42108 -0.422103,0.91456 -0.422103,2.18087 0,1.26631 0.422103,2.19493 0.422103,0.91456 1.195958,1.42108 0.773856,0.49246 1.829113,0.49246 z"
           style="font-family:Ubuntu;-inkscape-font-specification:Ubuntu"
           id="path502" /><path
           d="m 56.231639,152.74306 q -1.308519,0 -2.096445,-0.50652 -0.787926,-0.50652 -1.153748,-1.37887 -0.351753,-0.87235 -0.351753,-1.95574 v -6.1205 h 1.097468 v 5.99387 q 0,1.56178 0.689435,2.27935 0.703505,0.70351 1.815043,0.70351 1.125608,0 1.815043,-0.71758 0.703505,-0.71757 0.703505,-2.26528 v -5.99387 h 1.097468 v 6.1205 q 0,1.08339 -0.365823,1.95574 -0.351752,0.87235 -1.139678,1.37887 -0.787926,0.50652 -2.110515,0.50652 z"
           style="font-family:Ubuntu;-inkscape-font-specification:Ubuntu"
           id="path504" /><path
           d="m 66.390259,152.74306 q -1.280379,0 -2.307496,-0.59094 -1.013048,-0.59094 -1.603992,-1.71655 -0.576874,-1.13968 -0.576874,-2.78588 0,-1.2241 0.365823,-2.1668 0.365822,-0.95676 0.998977,-1.60399 0.647224,-0.64722 1.46329,-0.97084 0.830136,-0.33768 1.730622,-0.33768 0.745716,0 1.29445,0.12663 0.562804,0.11256 0.928626,0.26734 0.365823,0.15477 0.534664,0.26733 l -0.351752,0.92862 q -0.351753,-0.21105 -0.914557,-0.40803 -0.548734,-0.19698 -1.336659,-0.19698 -1.153749,0 -1.955744,0.52059 -0.787926,0.50653 -1.195959,1.43515 -0.408033,0.91456 -0.408033,2.15273 0,1.23817 0.393963,2.16679 0.393963,0.91456 1.153748,1.42108 0.773856,0.50653 1.885394,0.50653 0.928626,0 1.547711,-0.16884 0.619084,-0.18292 0.956766,-0.36583 l 0.295473,0.92863 q -0.225122,0.1407 -0.984907,0.36582 -0.745716,0.22512 -1.913534,0.22512 z"
           style="font-family:Ubuntu;-inkscape-font-specification:Ubuntu"
           id="path506" /><path
           d="m 70.920845,152.53201 v -9.75058 h 1.097467 v 4.17882 h 5.107447 v -4.17882 h 1.097468 v 9.75058 h -1.097468 v -4.62906 h -5.107447 v 4.62906 z"
           style="font-family:Ubuntu;-inkscape-font-specification:Ubuntu"
           id="path508" /><path
           d="m 81.206094,152.70085 q -0.379893,0 -0.605015,-0.23919 -0.225121,-0.23919 -0.225121,-0.59094 0,-0.35175 0.225121,-0.59095 0.225122,-0.23919 0.605015,-0.23919 0.379892,0 0.605014,0.23919 0.225122,0.2392 0.225122,0.59095 0,0.35175 -0.225122,0.59094 -0.225122,0.23919 -0.605014,0.23919 z"
           style="font-family:Ubuntu;-inkscape-font-specification:Ubuntu"
           id="path510" /><path
           d="m 88.480337,152.71492 q -1.46329,0 -2.560758,-0.59094 -1.083398,-0.60501 -1.688412,-1.73062 -0.590944,-1.13968 -0.590944,-2.74367 0,-1.63213 0.647225,-2.75774 0.661294,-1.13968 1.772832,-1.73062 1.111538,-0.60502 2.462268,-0.60502 0.928626,0 1.589921,0.15477 0.675365,0.1407 1.083398,0.32362 0.422103,0.16884 0.562804,0.26733 l -0.633155,1.75876 q -0.450243,-0.23919 -1.041187,-0.40803 -0.576874,-0.18291 -1.266309,-0.18291 -1.013047,0 -1.660272,0.39396 -0.633155,0.37989 -0.942697,1.09747 -0.295472,0.7035 -0.295472,1.68841 0,0.94269 0.295472,1.67434 0.309542,0.71758 0.900487,1.12561 0.605014,0.39396 1.5055,0.39396 0.365823,0 0.619085,-0.0141 0.267332,-0.0141 0.464313,-0.0563 v -3.39089 h 2.194936 v 4.82604 q -0.393963,0.15477 -1.266309,0.32361 -0.872347,0.18291 -2.152726,0.18291 z"
           style="font-weight:800;font-family:Ubuntu;-inkscape-font-specification:'Ubuntu Ultra-Bold'"
           id="path512" /><path
           d="m 93.939531,152.53201 v -9.60988 q 0.717575,-0.1407 1.47736,-0.19698 0.773856,-0.0563 1.37887,-0.0563 2.194936,0 3.362749,0.78793 1.16782,0.77385 1.16782,2.42006 0,1.02711 -0.47838,1.67434 -0.46431,0.63315 -1.35073,0.99897 0.295472,0.36583 0.61908,0.83014 0.32362,0.46431 0.63316,0.99898 0.32361,0.52059 0.61908,1.06933 0.29548,0.54873 0.54874,1.08339 h -2.46227 q -0.351752,-0.64722 -0.731645,-1.29445 -0.379893,-0.64722 -0.759786,-1.23817 -0.365822,-0.59094 -0.745715,-1.02711 0,0 0,0 0,0 0,0 h -1.083398 v 3.55973 z m 2.194935,-5.30442 h 0.619085 q 0.830136,0 1.336659,-0.12664 0.506524,-0.1407 0.731646,-0.43617 0.239191,-0.30954 0.239191,-0.80199 0,-0.47839 -0.239191,-0.75979 -0.239192,-0.29547 -0.717576,-0.4221 -0.478383,-0.1407 -1.181888,-0.1407 -0.239192,0 -0.436173,0.0141 -0.182911,0.0141 -0.351753,0.0281 z"
           style="font-weight:800;font-family:Ubuntu;-inkscape-font-specification:'Ubuntu Ultra-Bold'"
           id="path514" /><path
           d="m 102.77555,152.53201 q 0.73165,-2.09644 1.3648,-3.79892 0.64723,-1.70249 1.25224,-3.15171 0.61909,-1.44922 1.26631,-2.79995 h 2.09645 q 0.47838,1.01305 0.94269,2.08238 0.46432,1.06933 0.92863,2.25121 0.46431,1.16782 0.95677,2.50448 0.50652,1.33666 1.05525,2.91251 h -2.3497 q -0.15477,-0.50652 -0.35175,-1.04118 -0.18292,-0.53467 -0.36583,-1.06933 h -3.79892 q -0.18292,0.53466 -0.3799,1.06933 -0.18291,0.53466 -0.33768,1.04118 z m 3.50346,-3.8552 h 2.77181 q -0.22512,-0.63316 -0.43617,-1.21003 -0.21106,-0.57688 -0.40804,-1.05526 -0.18291,-0.47838 -0.32361,-0.84421 -0.1407,-0.36582 -0.22512,-0.57687 -0.0704,0.21105 -0.21105,0.57687 -0.12663,0.36583 -0.32361,0.84421 -0.18292,0.47838 -0.40804,1.05526 -0.21105,0.57687 -0.43617,1.21003 z"
           style="font-weight:800;font-family:Ubuntu;-inkscape-font-specification:'Ubuntu Ultra-Bold'"
           id="path516" /><path
           d="m 116.83161,152.72899 q -1.29445,0 -2.09645,-0.25326 -0.78792,-0.26733 -1.16782,-0.49245 l 0.61909,-1.74469 q 0.43617,0.23919 1.06932,0.43617 0.64723,0.18291 1.57586,0.18291 0.92862,0 1.25223,-0.2814 0.32362,-0.29547 0.32362,-0.73165 0,-0.32361 -0.19698,-0.5628 -0.19699,-0.23919 -0.63316,-0.45024 -0.43617,-0.22512 -1.16782,-0.46432 -0.63315,-0.22512 -1.25224,-0.54873 -0.61908,-0.33768 -1.02711,-0.88642 -0.39397,-0.54873 -0.39397,-1.44922 0,-0.90048 0.43618,-1.54771 0.45024,-0.66129 1.25224,-1.01305 0.80199,-0.36582 1.89946,-0.36582 0.98491,0 1.70248,0.21105 0.71758,0.21106 1.18189,0.46432 l -0.63315,1.73062 q -0.40804,-0.21105 -0.91456,-0.36582 -0.49245,-0.16884 -1.19596,-0.16884 -0.78793,0 -1.13968,0.22512 -0.33768,0.21105 -0.33768,0.66129 0,0.33768 0.22512,0.56281 0.22512,0.22512 0.60502,0.39396 0.37989,0.16884 0.85827,0.33768 1.01305,0.36582 1.67434,0.75979 0.6613,0.39396 0.98491,0.97083 0.33768,0.57688 0.33768,1.51957 0,0.90049 -0.4221,1.54771 -0.4221,0.64723 -1.28038,0.98491 -0.8442,0.33768 -2.13865,0.33768 z"
           style="font-weight:800;font-family:Ubuntu;-inkscape-font-specification:'Ubuntu Ultra-Bold'"
           id="path518" /><path
           d="m 125.02042,152.72899 q -1.29445,0 -2.09645,-0.25326 -0.78792,-0.26733 -1.16781,-0.49245 l 0.61908,-1.74469 q 0.43617,0.23919 1.06933,0.43617 0.64722,0.18291 1.57585,0.18291 0.92862,0 1.25224,-0.2814 0.32361,-0.29547 0.32361,-0.73165 0,-0.32361 -0.19698,-0.5628 -0.19698,-0.23919 -0.63316,-0.45024 -0.43617,-0.22512 -1.16781,-0.46432 -0.63316,-0.22512 -1.25224,-0.54873 -0.61909,-0.33768 -1.02712,-0.88642 -0.39396,-0.54873 -0.39396,-1.44922 0,-0.90048 0.43617,-1.54771 0.45024,-0.66129 1.25224,-1.01305 0.80199,-0.36582 1.89946,-0.36582 0.98491,0 1.70248,0.21105 0.71758,0.21106 1.18189,0.46432 l -0.63315,1.73062 q -0.40804,-0.21105 -0.91456,-0.36582 -0.49245,-0.16884 -1.19596,-0.16884 -0.78792,0 -1.13968,0.22512 -0.33768,0.21105 -0.33768,0.66129 0,0.33768 0.22512,0.56281 0.22513,0.22512 0.60502,0.39396 0.37989,0.16884 0.85827,0.33768 1.01305,0.36582 1.67435,0.75979 0.66129,0.39396 0.9849,0.97083 0.33769,0.57688 0.33769,1.51957 0,0.90049 -0.42211,1.54771 -0.4221,0.64723 -1.28038,0.98491 -0.8442,0.33768 -2.13865,0.33768 z"
           style="font-weight:800;font-family:Ubuntu;-inkscape-font-specification:'Ubuntu Ultra-Bold'"
           id="path520" /></g><g
         id="g537"
         transform="matrix(8.8194444,0,0,8.8194444,-41.4971,61.329)"><path
           d="m 6.4804145,8.3940267 c 0.085721,0.085721 0.5864579,0.3010693 0.6272277,1.8816843 0,0.06795 0,0.136944 0,0.209075 h 0.3136139 c 0,-2.0782147 -0.7317657,-2.0907593 -0.9408416,-2.0907593 z M 7.9439459,8.7076406 A 0.73176571,0.73176571 0 0 0 7.3627149,9.0212545 1.7039688,1.7039688 0 0 1 7.4797973,9.4394063 C 7.6031521,8.8947635 7.8801777,8.7714087 7.9439459,8.7076406 Z M 6.1668006,9.1257924 c 0.080494,0.080494 0.4934192,0.3230223 0.5226898,1.2544556 0,0.03345 0,0.06899 0,0.104538 h 0.3136139 c 0,-0.886482 -0.2613449,-1.3359952 -0.8363037,-1.3589936 z m 2.0907592,0 c -0.2090759,0 -0.7317657,0.2352104 -0.7317657,1.3589936 h 0.3136138 c 0,-0.9408418 0.3261585,-1.2670002 0.4181519,-1.3589936 z"
           id="path525"
           style="stroke-width:0.104538" /><rect
           width="24"
           height="24"
           fill="none"
           id="rect527"
           x="0"
           y="0" /></g></g></g></svg>
